<?xml version="1.0" encoding="UTF-8" standalone="no"?>
<svg width="75px" height="103px" viewBox="0 0 75 103" version="1.1" xmlns="http://www.w3.org/2000/svg" xmlns:xlink="http://www.w3.org/1999/xlink" xmlns:sketch="http://www.bohemiancoding.com/sketch/ns">
    <!-- Generator: Sketch 3.2.2 (9983) - http://www.bohemiancoding.com/sketch -->
    <title>Ping Pong</title>
    <desc>Created with Sketch.</desc>
    <defs></defs>
    <g id="Page-1" stroke="none" stroke-width="1" fill="none" fill-rule="evenodd" sketch:type="MSPage">
        <g id="Landing-Desktop" sketch:type="MSArtboardGroup" transform="translate(-1028.000000, -1334.000000)">
            <g id="Earn-Wellcoins-2" sketch:type="MSLayerGroup" transform="translate(0.000000, 850.000000)">
                <g id="Do-something-fun" transform="translate(975.000000, 484.000000)" sketch:type="MSShapeGroup">
                    <g id="Ping-Pong" transform="translate(53.000000, 0.000000)">
                        <path d="M46.7268634,102.399167 L28.7562467,102.399167 L30.1629262,80.3522619 C30.1604813,75.6788413 24.7016518,72.4564127 24.1181161,72.1253413 L23.2428126,71.7705635 C9.4490399,65.9224524 0.546860943,52.4539762 0.546860943,37.4519444 C0.546860943,16.9206111 17.1996324,0.217444444 37.6698356,0.217444444 C58.1392237,0.217444444 74.7919952,16.9206111 74.7919952,37.4519444 C74.7919952,50.4945238 68.210104,62.2397937 57.561393,68.9732143 L57.561393,69.0328889 L57.4660387,69.0328889 C55.5556929,70.2329206 53.516578,71.2710952 51.361734,72.1277937 C50.7570085,72.4703095 45.3226288,75.6935556 45.3226288,80.4307381 L46.7268634,102.399167 L46.7268634,102.399167 Z M31.3617823,99.9467857 L44.1213277,99.9467857 L42.8800919,80.5083968 C42.8776469,73.9613571 49.9607594,70.0964048 50.2623071,69.9353651 L50.3894462,69.8756905 C51.0544813,69.6132857 51.7072914,69.3320794 52.3486917,69.0328889 L23.1156735,69.0328889 C23.4661209,69.194746 23.8198283,69.3525159 24.1776106,69.503746 L25.2208029,69.9353651 C25.5223507,70.0964048 32.6054631,73.9613571 32.6054631,80.4307381 L31.3617823,99.9467857 L31.3617823,99.9467857 Z M18.6959613,66.5805079 L56.748844,66.5805079 C66.4040774,60.2419206 72.3470133,49.4334603 72.3470133,37.4519444 C72.3470133,18.2735079 56.7912237,2.6698254 37.6698356,2.6698254 C18.5484474,2.6698254 2.99184281,18.2735079 2.99184281,37.4519444 C2.99184281,49.3607063 8.99590326,60.233746 18.6959613,66.5805079 L18.6959613,66.5805079 Z" id="Fill-1" fill="#231F1F"></path>
                        <path d="M23.1580532,59.1563333 C23.1580532,60.2198492 22.2982346,61.0822698 21.2379274,61.0822698 C20.1768053,61.0822698 19.3169867,60.2198492 19.3169867,59.1563333 C19.3169867,58.092 20.1768053,57.2295794 21.2379274,57.2295794 C22.2982346,57.2295794 23.1580532,58.092 23.1580532,59.1563333" id="Fill-2" fill="#FFC10E"></path>
                        <path d="M31.3740073,59.1563333 C31.3740073,60.2198492 30.5141886,61.0822698 29.4530665,61.0822698 C28.3927594,61.0822698 27.5329407,60.2198492 27.5329407,59.1563333 C27.5329407,58.092 28.3927594,57.2295794 29.4530665,57.2295794 C30.5141886,57.2295794 31.3740073,58.092 31.3740073,59.1563333" id="Fill-3" fill="#FFC10E"></path>
                        <path d="M39.5899613,59.1563333 C39.5899613,60.2198492 38.7301427,61.0822698 37.6690206,61.0822698 C36.6087134,61.0822698 35.7488948,60.2198492 35.7488948,59.1563333 C35.7488948,58.092 36.6087134,57.2295794 37.6690206,57.2295794 C38.7301427,57.2295794 39.5899613,58.092 39.5899613,59.1563333" id="Fill-4" fill="#FFC10E"></path>
                        <path d="M47.8059154,59.1563333 C47.8059154,60.2198492 46.9460967,61.0822698 45.8849746,61.0822698 C44.8246675,61.0822698 43.9640339,60.2198492 43.9640339,59.1563333 C43.9640339,58.092 44.8246675,57.2295794 45.8849746,57.2295794 C46.9460967,57.2295794 47.8059154,58.092 47.8059154,59.1563333" id="Fill-5" fill="#FFC10E"></path>
                        <path d="M56.0218694,59.1563333 C56.0218694,60.2198492 55.1620508,61.0822698 54.1009287,61.0822698 C53.0406215,61.0822698 52.1799879,60.2198492 52.1799879,59.1563333 C52.1799879,58.092 53.0406215,57.2295794 54.1009287,57.2295794 C55.1620508,57.2295794 56.0218694,58.092 56.0218694,59.1563333" id="Fill-6" fill="#FFC10E"></path>
                        <path d="M14.9420992,49.4048492 C14.9420992,50.4691825 14.0822805,51.3316032 13.0219734,51.3316032 C11.9608513,51.3316032 11.1010326,50.4691825 11.1010326,49.4048492 C11.1010326,48.3413333 11.9608513,47.4780952 13.0219734,47.4780952 C14.0822805,47.4780952 14.9420992,48.3413333 14.9420992,49.4048492" id="Fill-7" fill="#FFC10E"></path>
                        <path d="M23.1580532,49.4048492 C23.1580532,50.4691825 22.2982346,51.3316032 21.2379274,51.3316032 C20.1768053,51.3316032 19.3169867,50.4691825 19.3169867,49.4048492 C19.3169867,48.3413333 20.1768053,47.4780952 21.2379274,47.4780952 C22.2982346,47.4780952 23.1580532,48.3413333 23.1580532,49.4048492" id="Fill-8" fill="#FFC10E"></path>
                        <path d="M31.3740073,49.4048492 C31.3740073,50.4691825 30.5141886,51.3316032 29.4530665,51.3316032 C28.3927594,51.3316032 27.5329407,50.4691825 27.5329407,49.4048492 C27.5329407,48.3413333 28.3927594,47.4780952 29.4530665,47.4780952 C30.5141886,47.4780952 31.3740073,48.3413333 31.3740073,49.4048492" id="Fill-9" fill="#FFC10E"></path>
                        <path d="M39.5899613,49.4048492 C39.5899613,50.4691825 38.7301427,51.3316032 37.6690206,51.3316032 C36.6087134,51.3316032 35.7488948,50.4691825 35.7488948,49.4048492 C35.7488948,48.3413333 36.6087134,47.4780952 37.6690206,47.4780952 C38.7301427,47.4780952 39.5899613,48.3413333 39.5899613,49.4048492" id="Fill-10" fill="#FFC10E"></path>
                        <path d="M47.8059154,49.4048492 C47.8059154,50.4691825 46.9460967,51.3316032 45.8849746,51.3316032 C44.8246675,51.3316032 43.9640339,50.4691825 43.9640339,49.4048492 C43.9640339,48.3413333 44.8246675,47.4780952 45.8849746,47.4780952 C46.9460967,47.4780952 47.8059154,48.3413333 47.8059154,49.4048492" id="Fill-11" fill="#FFC10E"></path>
                        <path d="M56.0218694,49.4048492 C56.0218694,50.4691825 55.1620508,51.3316032 54.1009287,51.3316032 C53.0406215,51.3316032 52.1799879,50.4691825 52.1799879,49.4048492 C52.1799879,48.3413333 53.0406215,47.4780952 54.1009287,47.4780952 C55.1620508,47.4780952 56.0218694,48.3413333 56.0218694,49.4048492" id="Fill-12" fill="#FFC10E"></path>
                        <path d="M64.2378235,49.4048492 C64.2378235,50.4691825 63.3780048,51.3316032 62.3168827,51.3316032 C61.2557606,51.3316032 60.395942,50.4691825 60.395942,49.4048492 C60.395942,48.3413333 61.2557606,47.4780952 62.3168827,47.4780952 C63.3780048,47.4780952 64.2378235,48.3413333 64.2378235,49.4048492" id="Fill-13" fill="#FFC10E"></path>
                        <path d="M14.9420992,39.6541825 C14.9420992,40.7185159 14.0822805,41.580119 13.0219734,41.580119 C11.9608513,41.580119 11.1010326,40.7185159 11.1010326,39.6541825 C11.1010326,38.5898492 11.9608513,37.7274286 13.0219734,37.7274286 C14.0822805,37.7274286 14.9420992,38.5898492 14.9420992,39.6541825" id="Fill-14" fill="#FFC10E"></path>
                        <path d="M23.1580532,39.6541825 C23.1580532,40.7185159 22.2982346,41.580119 21.2379274,41.580119 C20.1768053,41.580119 19.3169867,40.7185159 19.3169867,39.6541825 C19.3169867,38.5898492 20.1768053,37.7274286 21.2379274,37.7274286 C22.2982346,37.7274286 23.1580532,38.5898492 23.1580532,39.6541825" id="Fill-15" fill="#FFC10E"></path>
                        <path d="M31.3740073,39.6541825 C31.3740073,40.7185159 30.5141886,41.580119 29.4530665,41.580119 C28.3927594,41.580119 27.5329407,40.7185159 27.5329407,39.6541825 C27.5329407,38.5898492 28.3927594,37.7274286 29.4530665,37.7274286 C30.5141886,37.7274286 31.3740073,38.5898492 31.3740073,39.6541825" id="Fill-16" fill="#FFC10E"></path>
                        <path d="M39.5899613,39.6541825 C39.5899613,40.7185159 38.7301427,41.580119 37.6690206,41.580119 C36.6087134,41.580119 35.7488948,40.7185159 35.7488948,39.6541825 C35.7488948,38.5898492 36.6087134,37.7274286 37.6690206,37.7274286 C38.7301427,37.7274286 39.5899613,38.5898492 39.5899613,39.6541825" id="Fill-17" fill="#FFC10E"></path>
                        <path d="M47.8059154,39.6541825 C47.8059154,40.7185159 46.9460967,41.580119 45.8849746,41.580119 C44.8246675,41.580119 43.9640339,40.7185159 43.9640339,39.6541825 C43.9640339,38.5898492 44.8246675,37.7274286 45.8849746,37.7274286 C46.9460967,37.7274286 47.8059154,38.5898492 47.8059154,39.6541825" id="Fill-18" fill="#FFC10E"></path>
                        <path d="M56.0218694,39.6541825 C56.0218694,40.7185159 55.1620508,41.580119 54.1009287,41.580119 C53.0406215,41.580119 52.1799879,40.7185159 52.1799879,39.6541825 C52.1799879,38.5898492 53.0406215,37.7274286 54.1009287,37.7274286 C55.1620508,37.7274286 56.0218694,38.5898492 56.0218694,39.6541825" id="Fill-19" fill="#FFC10E"></path>
                        <path d="M64.2378235,39.6541825 C64.2378235,40.7185159 63.3780048,41.580119 62.3168827,41.580119 C61.2557606,41.580119 60.395942,40.7185159 60.395942,39.6541825 C60.395942,38.5898492 61.2557606,37.7274286 62.3168827,37.7274286 C63.3780048,37.7274286 64.2378235,38.5898492 64.2378235,39.6541825" id="Fill-20" fill="#FFC10E"></path>
                        <path d="M14.9420992,29.9035159 C14.9420992,30.9670317 14.0822805,31.8294524 13.0219734,31.8294524 C11.9608513,31.8294524 11.1010326,30.9670317 11.1010326,29.9035159 C11.1010326,28.8391825 11.9608513,27.9767619 13.0219734,27.9767619 C14.0822805,27.9767619 14.9420992,28.8391825 14.9420992,29.9035159" id="Fill-21" fill="#FFC10E"></path>
                        <path d="M23.1580532,29.9035159 C23.1580532,30.9670317 22.2982346,31.8294524 21.2379274,31.8294524 C20.1768053,31.8294524 19.3169867,30.9670317 19.3169867,29.9035159 C19.3169867,28.8391825 20.1768053,27.9767619 21.2379274,27.9767619 C22.2982346,27.9767619 23.1580532,28.8391825 23.1580532,29.9035159" id="Fill-22" fill="#FFC10E"></path>
                        <path d="M31.3740073,29.9035159 C31.3740073,30.9670317 30.5141886,31.8294524 29.4530665,31.8294524 C28.3927594,31.8294524 27.5329407,30.9670317 27.5329407,29.9035159 C27.5329407,28.8391825 28.3927594,27.9767619 29.4530665,27.9767619 C30.5141886,27.9767619 31.3740073,28.8391825 31.3740073,29.9035159" id="Fill-23" fill="#FFC10E"></path>
                        <path d="M39.5899613,29.9035159 C39.5899613,30.9670317 38.7301427,31.8294524 37.6690206,31.8294524 C36.6087134,31.8294524 35.7488948,30.9670317 35.7488948,29.9035159 C35.7488948,28.8391825 36.6087134,27.9767619 37.6690206,27.9767619 C38.7301427,27.9767619 39.5899613,28.8391825 39.5899613,29.9035159" id="Fill-24" fill="#FFC10E"></path>
                        <path d="M47.8059154,29.9035159 C47.8059154,30.9670317 46.9460967,31.8294524 45.8849746,31.8294524 C44.8246675,31.8294524 43.9640339,30.9670317 43.9640339,29.9035159 C43.9640339,28.8391825 44.8246675,27.9767619 45.8849746,27.9767619 C46.9460967,27.9767619 47.8059154,28.8391825 47.8059154,29.9035159" id="Fill-25" fill="#FFC10E"></path>
                        <path d="M56.0218694,29.9035159 C56.0218694,30.9670317 55.1620508,31.8294524 54.1009287,31.8294524 C53.0406215,31.8294524 52.1799879,30.9670317 52.1799879,29.9035159 C52.1799879,28.8391825 53.0406215,27.9767619 54.1009287,27.9767619 C55.1620508,27.9767619 56.0218694,28.8391825 56.0218694,29.9035159" id="Fill-26" fill="#FFC10E"></path>
                        <path d="M64.2378235,29.9035159 C64.2378235,30.9670317 63.3780048,31.8294524 62.3168827,31.8294524 C61.2557606,31.8294524 60.395942,30.9670317 60.395942,29.9035159 C60.395942,28.8391825 61.2557606,27.9767619 62.3168827,27.9767619 C63.3780048,27.9767619 64.2378235,28.8391825 64.2378235,29.9035159" id="Fill-27" fill="#FFC10E"></path>
                        <path d="M23.1580532,20.1520317 C23.1580532,21.2163651 22.2982346,22.0787857 21.2379274,22.0787857 C20.1768053,22.0787857 19.3169867,21.2163651 19.3169867,20.1520317 C19.3169867,19.0885159 20.1768053,18.2252778 21.2379274,18.2252778 C22.2982346,18.2252778 23.1580532,19.0885159 23.1580532,20.1520317" id="Fill-28" fill="#FFC10E"></path>
                        <path d="M31.3740073,20.1520317 C31.3740073,21.2163651 30.5141886,22.0787857 29.4530665,22.0787857 C28.3927594,22.0787857 27.5329407,21.2163651 27.5329407,20.1520317 C27.5329407,19.0885159 28.3927594,18.2252778 29.4530665,18.2252778 C30.5141886,18.2252778 31.3740073,19.0885159 31.3740073,20.1520317" id="Fill-29" fill="#FFC10E"></path>
                        <path d="M39.5899613,20.1520317 C39.5899613,21.2163651 38.7301427,22.0787857 37.6690206,22.0787857 C36.6087134,22.0787857 35.7488948,21.2163651 35.7488948,20.1520317 C35.7488948,19.0885159 36.6087134,18.2252778 37.6690206,18.2252778 C38.7301427,18.2252778 39.5899613,19.0885159 39.5899613,20.1520317" id="Fill-30" fill="#FFC10E"></path>
                        <path d="M47.8059154,20.1520317 C47.8059154,21.2163651 46.9460967,22.0787857 45.8849746,22.0787857 C44.8246675,22.0787857 43.9640339,21.2163651 43.9640339,20.1520317 C43.9640339,19.0885159 44.8246675,18.2252778 45.8849746,18.2252778 C46.9460967,18.2252778 47.8059154,19.0885159 47.8059154,20.1520317" id="Fill-31" fill="#FFC10E"></path>
                        <path d="M56.0218694,20.1520317 C56.0218694,21.2163651 55.1620508,22.0787857 54.1009287,22.0787857 C53.0406215,22.0787857 52.1799879,21.2163651 52.1799879,20.1520317 C52.1799879,19.0885159 53.0406215,18.2252778 54.1009287,18.2252778 C55.1620508,18.2252778 56.0218694,19.0885159 56.0218694,20.1520317" id="Fill-32" fill="#FFC10E"></path>
                        <path d="M31.3740073,10.4013651 C31.3740073,11.464881 30.5141886,12.3273016 29.4530665,12.3273016 C28.3927594,12.3273016 27.5329407,11.464881 27.5329407,10.4013651 C27.5329407,9.33703175 28.3927594,8.47461111 29.4530665,8.47461111 C30.5141886,8.47461111 31.3740073,9.33703175 31.3740073,10.4013651" id="Fill-33" fill="#FFC10E"></path>
                        <path d="M39.5899613,10.4013651 C39.5899613,11.464881 38.7301427,12.3273016 37.6690206,12.3273016 C36.6087134,12.3273016 35.7488948,11.464881 35.7488948,10.4013651 C35.7488948,9.33703175 36.6087134,8.47461111 37.6690206,8.47461111 C38.7301427,8.47461111 39.5899613,9.33703175 39.5899613,10.4013651" id="Fill-34" fill="#FFC10E"></path>
                        <path d="M47.8059154,10.4013651 C47.8059154,11.464881 46.9460967,12.3273016 45.8849746,12.3273016 C44.8246675,12.3273016 43.9640339,11.464881 43.9640339,10.4013651 C43.9640339,9.33703175 44.8246675,8.47461111 45.8849746,8.47461111 C46.9460967,8.47461111 47.8059154,9.33703175 47.8059154,10.4013651" id="Fill-35" fill="#FFC10E"></path>
                    </g>
                </g>
            </g>
        </g>
    </g>
</svg>