<?xml version="1.0" encoding="UTF-8" standalone="no"?>
<svg width="131px" height="98px" viewBox="0 0 131 98" version="1.1" xmlns="http://www.w3.org/2000/svg" xmlns:xlink="http://www.w3.org/1999/xlink" xmlns:sketch="http://www.bohemiancoding.com/sketch/ns">
    <!-- Generator: Sketch 3.2.2 (9983) - http://www.bohemiancoding.com/sketch -->
    <title>Sleep</title>
    <desc>Created with Sketch.</desc>
    <defs></defs>
    <g id="Page-1" stroke="none" stroke-width="1" fill="none" fill-rule="evenodd" sketch:type="MSPage">
        <g id="Landing-Desktop" sketch:type="MSArtboardGroup" transform="translate(-338.000000, -1334.000000)">
            <g id="Earn-Wellcoins-2" sketch:type="MSLayerGroup" transform="translate(0.000000, 850.000000)">
                <g id="Sleep-7-hours" transform="translate(294.000000, 484.000000)" sketch:type="MSShapeGroup">
                    <g id="Sleep" transform="translate(44.000000, 0.000000)">
                        <path d="M49.2211536,97.3161984 C22.5806312,97.3161984 0.906681983,75.5766587 0.906681983,48.8563333 C0.906681983,22.134373 22.5806312,0.394833333 49.2211536,0.394833333 C75.8616759,0.394833333 97.5356252,22.134373 97.5356252,48.8563333 C97.5356252,75.5766587 75.8616759,97.3161984 49.2211536,97.3161984 L49.2211536,97.3161984 Z M49.2211536,2.84721429 C23.9286312,2.84721429 3.35166385,23.4864524 3.35166385,48.8563333 C3.35166385,74.2245794 23.9286312,94.8638175 49.2211536,94.8638175 C74.5136759,94.8638175 95.0906433,74.2245794 95.0906433,48.8563333 C95.0906433,23.4864524 74.5136759,2.84721429 49.2211536,2.84721429 L49.2211536,2.84721429 Z" id="Fill-1" fill="#FFC10E"></path>
                        <path d="M49.2211536,87.2769683 C28.0997703,87.2769683 10.9164377,70.0416349 10.9164377,48.8563333 C10.9164377,27.6710317 28.0997703,10.434881 49.2211536,10.434881 C70.3425369,10.434881 87.5258694,27.6710317 87.5258694,48.8563333 C87.5258694,70.0416349 70.3425369,87.2769683 49.2211536,87.2769683 L49.2211536,87.2769683 Z M49.2211536,12.8872619 C29.4477703,12.8872619 13.3614196,29.0231111 13.3614196,48.8563333 C13.3614196,68.6887381 29.4477703,84.8245873 49.2211536,84.8245873 C68.9937219,84.8245873 85.0808875,68.6887381 85.0808875,48.8563333 C85.0808875,29.0231111 68.9937219,12.8872619 49.2211536,12.8872619 L49.2211536,12.8872619 Z" id="Fill-2" fill="#FFC10E"></path>
                        <path d="M21.6311632,23.1831746 L15.4771439,17.0105317 L17.2057461,15.2766984 L23.3597654,21.4493413 L21.6311632,23.1831746" id="Fill-4" fill="#FFC10E"></path>
                        <path d="M33.934312,46.4023175 C33.8634075,46.4023175 33.792503,46.4015 33.7207836,46.4006825 C31.0476034,46.3450952 28.5553519,45.2464286 26.7020556,43.3090476 C26.2350641,42.8202063 26.251364,42.0444365 26.7379154,41.5760317 C27.2252817,41.107627 27.999526,41.1215238 28.4665175,41.612 C29.8674921,43.0768889 31.7517582,43.9057937 33.7721282,43.9483016 C35.7843482,44.0275952 37.708549,43.240381 39.1690181,41.8351667 C39.6563845,41.3659444 40.4306288,41.3806587 40.8976203,41.8711349 C41.3654268,42.3599762 41.349127,43.135746 40.8617606,43.6041508 C38.9815695,45.4140079 36.5292527,46.4023175 33.934312,46.4023175" id="Fill-5" fill="#231F1F"></path>
                        <path d="M74.2455429,75.9575952 L75.9741451,74.2237619 L83.5649988,81.8367698 L81.8363966,83.5706032 L74.2455429,75.9575952 Z" id="Fill-3" fill="#FFC10E"></path>
                        <path d="M64.7769432,46.4023175 C64.7052237,46.4023175 64.6343192,46.4015 64.5634148,46.4006825 C61.8902346,46.3450952 59.3971681,45.2464286 57.5446868,43.3090476 C57.0768803,42.8202063 57.0931802,42.0444365 57.5805466,41.5760317 C58.0670979,41.107627 58.8405272,41.1215238 59.3091487,41.612 C60.7093083,43.0768889 62.5943894,43.9057937 64.6139444,43.9483016 C66.6277944,44.0275952 68.5503652,43.240381 70.0108343,41.8351667 C70.4990157,41.3659444 71.27163,41.3806587 71.7394365,41.8711349 C72.2064281,42.3599762 72.1909432,43.135746 71.7035768,43.6041508 C69.8233857,45.4140079 67.3710689,46.4023175 64.7769432,46.4023175" id="Fill-6" fill="#231F1F"></path>
                        <path d="M49.4542418,69.4653254 C44.9359154,69.4653254 41.2611076,65.2897381 41.2611076,60.1577222 C41.2611076,55.0257063 44.9359154,50.8493016 49.4542418,50.8493016 C53.9717533,50.8493016 57.6473761,55.0257063 57.6473761,60.1577222 C57.6473761,65.2897381 53.9717533,69.4653254 49.4542418,69.4653254 L49.4542418,69.4653254 Z M49.4542418,53.3016825 C46.2847304,53.3016825 43.7060895,56.3777857 43.7060895,60.1577222 C43.7060895,63.9376587 46.2847304,67.0129444 49.4542418,67.0129444 C52.6237533,67.0129444 55.2023942,63.9376587 55.2023942,60.1577222 C55.2023942,56.3777857 52.6237533,53.3016825 49.4542418,53.3016825 L49.4542418,53.3016825 Z" id="Fill-7" fill="#231F1F"></path>
                        <path d="M87.2332866,33.8543016 L87.2332866,30.6498571 L96.0303313,20.0343175 L87.5429843,20.0343175 L87.5429843,16.9018095 L100.416629,16.9018095 L100.416629,19.9860873 L91.4769601,30.6980873 L100.535618,30.6980873 L100.535618,33.8543016 L87.2332866,33.8543016" id="Fill-8" fill="#231F1F"></path>
                        <path d="M117.176164,25.8758889 L117.176164,22.6714444 L125.973209,12.0559048 L117.485862,12.0559048 L117.485862,8.92339683 L130.358692,8.92339683 L130.358692,12.0076746 L121.419838,22.7196746 L130.478496,22.7196746 L130.478496,25.8758889 L117.176164,25.8758889" id="Fill-9" fill="#231F1F"></path>
                        <path d="M104.2308,36.1203016 L104.2308,33.3229524 L109.785799,27.1053492 L104.374239,27.1053492 L104.374239,24.3562302 L113.837949,24.3562302 L113.837949,27.0097063 L108.116692,33.3466587 L113.933304,33.3466587 L113.933304,36.1203016 L104.2308,36.1203016" id="Fill-10" fill="#231F1F"></path>
                    </g>
                </g>
            </g>
        </g>
    </g>
</svg>