<?xml version="1.0" encoding="UTF-8" standalone="no"?>
<svg width="77px" height="90px" viewBox="0 0 77 90" version="1.1" xmlns="http://www.w3.org/2000/svg" xmlns:xlink="http://www.w3.org/1999/xlink" xmlns:sketch="http://www.bohemiancoding.com/sketch/ns">
    <!-- Generator: Sketch 3.2.2 (9983) - http://www.bohemiancoding.com/sketch -->
    <title>Stop Watch</title>
    <desc>Created with Sketch.</desc>
    <defs></defs>
    <g id="Page-1" stroke="none" stroke-width="1" fill="none" fill-rule="evenodd" sketch:type="MSPage">
        <g id="Landing-Desktop" sketch:type="MSArtboardGroup" transform="translate(-801.000000, -1338.000000)">
            <g id="Earn-Wellcoins-2" sketch:type="MSLayerGroup" transform="translate(0.000000, 850.000000)">
                <g id="Go-for-a-run" transform="translate(749.000000, 488.000000)" sketch:type="MSShapeGroup">
                    <g id="Stop-Watch" transform="translate(52.000000, 0.000000)">
                        <path d="M38.2061016,89.1685714 C17.2306022,89.1685714 0.165443773,72.0517698 0.165443773,51.0127937 C0.165443773,29.9738175 17.2306022,12.8570159 38.2061016,12.8570159 C59.181601,12.8570159 76.2475744,29.9738175 76.2475744,51.0127937 C76.2475744,72.0517698 59.181601,89.1685714 38.2061016,89.1685714 L38.2061016,89.1685714 Z M38.2061016,15.3093968 C18.5786022,15.3093968 2.61042563,31.3258968 2.61042563,51.0127937 C2.61042563,70.6996905 18.5786022,86.7161905 38.2061016,86.7161905 C57.833601,86.7161905 73.8025925,70.6996905 73.8025925,51.0127937 C73.8025925,31.3258968 57.833601,15.3093968 38.2061016,15.3093968 L38.2061016,15.3093968 Z" id="Fill-1" fill="#FFC10E"></path>
                        <path d="M32.5687884,7.77895238 L35.0137703,7.77895238 L35.0137703,14.2401587 L32.5687884,14.2401587 L32.5687884,7.77895238 Z" id="Fill-2" fill="#FFC10E"></path>
                        <path d="M41.3992479,7.77895238 L43.8442297,7.77895238 L43.8442297,14.2401587 L41.3992479,14.2401587 L41.3992479,7.77895238 Z" id="Fill-3" fill="#FFC10E"></path>
                        <path d="M65.6771028,26.1154048 L63.8164716,24.5238095 L67.2044015,20.5403254 L62.3454075,16.3835397 L58.9591076,20.3670238 L57.0984764,18.7754286 L62.0715695,12.9265 L70.6510109,20.2656587 L65.6771028,26.1154048" id="Fill-4" fill="#FFC10E"></path>
                        <path d="M10.2306191,26.1154048 L5.256711,20.2656587 L13.8361524,12.9265 L18.8100605,18.7754286 L16.9494293,20.3670238 L13.5623144,16.3835397 L8.70332044,20.5403254 L12.0912503,24.5238095 L10.2306191,26.1154048" id="Fill-5" fill="#FFC10E"></path>
                        <path d="M23.1393083,0.0653968254 L53.2745248,0.0653968254 L53.2745248,9.1710873 L23.1393083,9.1710873 L23.1393083,0.0653968254 Z M25.5842902,6.71870635 L50.8295429,6.71870635 L50.8295429,2.51777778 L25.5842902,2.51777778 L25.5842902,6.71870635 Z" id="Fill-6" fill="#FFC10E"></path>
                        <path d="M38.3438356,59.2102857 C33.7537896,59.2102857 30.0194873,55.4646825 30.0194873,50.8615635 C30.0194873,46.257627 33.7537896,42.5120238 38.3438356,42.5120238 C42.9338815,42.5120238 46.6681838,46.257627 46.6681838,50.8615635 C46.6681838,55.4646825 42.9338815,59.2102857 38.3438356,59.2102857 L38.3438356,59.2102857 Z M38.3438356,45.7818651 C35.5508513,45.7818651 33.2794631,48.060127 33.2794631,50.8615635 C33.2794631,53.6621825 35.5508513,55.9412619 38.3438356,55.9412619 C41.1368198,55.9412619 43.408208,53.6621825 43.408208,50.8615635 C43.408208,48.060127 41.1368198,45.7818651 38.3438356,45.7818651 L38.3438356,45.7818651 Z" id="Fill-7" fill="#231F1F"></path>
                        <path d="M57.4774486,33.3482937 L54.8833229,30.7471349 L41.111555,44.5605794 L43.7056808,47.1625556 L57.4774486,33.3482937" id="Fill-8" fill="#231F1F"></path>
                    </g>
                </g>
            </g>
        </g>
    </g>
</svg>