<?xml version="1.0" encoding="UTF-8" standalone="no"?>
<svg width="60px" height="86px" viewBox="0 0 60 86" version="1.1" xmlns="http://www.w3.org/2000/svg" xmlns:xlink="http://www.w3.org/1999/xlink" xmlns:sketch="http://www.bohemiancoding.com/sketch/ns">
    <!-- Generator: Sketch 3.2.2 (9983) - http://www.bohemiancoding.com/sketch -->
    <title>Water</title>
    <desc>Created with Sketch.</desc>
    <defs></defs>
    <g id="Page-1" stroke="none" stroke-width="1" fill="none" fill-rule="evenodd" sketch:type="MSPage">
        <g id="Landing-Desktop" sketch:type="MSArtboardGroup" transform="translate(-584.000000, -1340.000000)">
            <g id="Earn-Wellcoins-2" sketch:type="MSLayerGroup" transform="translate(0.000000, 850.000000)">
                <g id="Choose-a-healthy-beverage" transform="translate(497.000000, 490.000000)" sketch:type="MSShapeGroup">
                    <g id="Water" transform="translate(87.473398, 0.539683)">
                        <path d="M55.0781064,84.573627 L3.94701572,84.573627 L0.217603386,0.375214286 L58.8067037,0.375214286 L55.0781064,84.573627 L55.0781064,84.573627 Z M6.28523337,82.121246 L52.7398888,82.121246 L56.2500677,2.82759524 L2.77342443,2.82759524 L6.28523337,82.121246 L6.28523337,82.121246 Z" id="Fill-1" fill="#231F1F"></path>
                        <path d="M9.77177751,60.7479286 L30.6470326,60.7479286 L30.6470326,81.5661905 L9.77177751,81.5661905 L9.77177751,60.7479286 Z M12.2167594,79.1129921 L28.2020508,79.1129921 L28.2020508,63.1994921 L12.2167594,63.1994921 L12.2167594,79.1129921 Z" id="Fill-2" fill="#FFC10E"></path>
                        <path d="M12.2403942,53.7570079 L4.5020266,33.681 L24.6380822,25.9748016 L32.3772648,46.0499921 L12.2403942,53.7570079 L12.2403942,53.7570079 Z M7.66827811,35.0943889 L13.6429988,50.5958889 L29.2110133,44.6374206 L23.2362926,29.1359206 L7.66827811,35.0943889 L7.66827811,35.0943889 Z" id="Fill-3" fill="#FFC10E"></path>
                        <path d="M37.9029238,68.2285079 L22.6274921,53.0073968 L37.9029238,37.7862857 L53.1775405,53.0073968 L37.9029238,68.2285079 L37.9029238,68.2285079 Z M26.0952914,53.0073968 L37.9029238,64.7714683 L49.7089262,53.0073968 L37.9029238,41.2425079 L26.0952914,53.0073968 L26.0952914,53.0073968 Z" id="Fill-4" fill="#FFC10E"></path>
                        <path d="M48.2003724,19.1457381 C44.3870157,19.1465556 39.2875985,18.2465317 32.6372479,15.4581746 C18.734266,9.63213492 8.68702056,13.3409524 4.39607739,14.9276429 C3.0056977,15.4401905 2.3724474,15.6748016 1.753052,15.5145794 L2.36429746,13.1398571 C2.21433857,13.100619 2.11083434,13.1136984 2.10675937,13.1136984 C2.29991294,13.0883571 2.964948,12.8423016 3.55011366,12.6256746 C7.71962273,11.0855794 18.7921306,6.9958254 33.5793809,13.1962619 C50.1897727,20.157754 55.9819347,14.5409841 56.0389843,14.4829444 L57.8132261,16.1701825 C57.6412624,16.3541111 54.9159226,19.1457381 48.2003724,19.1457381" id="Fill-5" fill="#231F1F"></path>
                        <path d="M48.3030617,73.1357222 C48.3030617,74.2409286 47.4041233,75.1368651 46.2949166,75.1368651 C45.1857098,75.1368651 44.2859565,74.2409286 44.2859565,73.1357222 C44.2859565,72.0305159 45.1857098,71.1337619 46.2949166,71.1337619 C47.4041233,71.1337619 48.3030617,72.0305159 48.3030617,73.1357222" id="Fill-6" fill="#231F1F"></path>
                        <path d="M51.4432334,33.1308492 C51.4432334,34.236873 50.544295,35.1328095 49.4350883,35.1328095 C48.3258815,35.1328095 47.4261282,34.236873 47.4261282,33.1308492 C47.4261282,32.0256429 48.3258815,31.1297063 49.4350883,31.1297063 C50.544295,31.1297063 51.4432334,32.0256429 51.4432334,33.1308492" id="Fill-7" fill="#231F1F"></path>
                        <path d="M34.4522394,21.733 C34.4522394,22.8390238 33.5524861,23.7349603 32.4432793,23.7349603 C31.3340726,23.7349603 30.4351342,22.8390238 30.4351342,21.733 C30.4351342,20.6277937 31.3340726,19.7318571 32.4432793,19.7318571 C33.5524861,19.7318571 34.4522394,20.6277937 34.4522394,21.733" id="Fill-8" fill="#231F1F"></path>
                        <path d="M43.545942,77.6709921 C43.545942,78.7761984 42.6470036,79.6721349 41.5369819,79.6721349 C40.4277751,79.6721349 39.5288368,78.7761984 39.5288368,77.6709921 C39.5288368,76.5649683 40.4277751,75.6690317 41.5369819,75.6690317 C42.6470036,75.6690317 43.545942,76.5649683 43.545942,77.6709921" id="Fill-9" fill="#231F1F"></path>
                    </g>
                </g>
            </g>
        </g>
    </g>
</svg>